<svg xmlns="http://www.w3.org/2000/svg" width="185" height="178" viewBox="0 0 185 178" fill="none">
<path d="M134.694 58.8735C152.326 79.1129 154.569 100.314 153.516 108.565C145.577 111.03 124.424 112.366 101.43 98.5167C78.154 84.4976 79.1871 59.8125 82.6057 49.0823C92.5808 43.8504 116.847 38.3856 134.694 58.8735Z" fill="#224827"/>
<path d="M153.267 106.87C153.588 107.14 153.63 107.618 153.361 107.939L152.873 108.52C152.604 108.841 152.125 108.883 151.804 108.614L71.6124 41.3247L73.0752 39.5814L153.267 106.87Z" fill="#224827"/>
<path d="M70.9593 37.0176C70.7628 26.4059 75.4718 19.414 77.8879 17.1825C80.919 18.4535 87.6661 23.4254 91.111 33.4644C94.5981 43.6266 88.0111 50.8412 84.2484 53.2225C79.8972 52.2719 71.1581 47.7597 70.9593 37.0176Z" fill="#3D8146"/>
<path d="M77.5326 17.7588C77.5039 17.5957 77.6128 17.4401 77.7759 17.4113L78.0713 17.3593C78.2345 17.3305 78.39 17.4394 78.4188 17.6026L85.6066 58.3664L84.7204 58.5226L77.5326 17.7588Z" fill="#3D8146"/>
<path d="M51.9303 75.3785C34.6407 89.3491 29.7626 106.316 29.4351 113.197C35.5548 116.349 52.6144 120.48 73.3581 112.493C94.3565 104.407 97.0637 84.1263 95.8188 74.8838C88.4359 69.1826 69.4321 61.2363 51.9303 75.3785Z" fill="#326238"/>
<path d="M29.8814 111.851C29.581 112.025 29.478 112.409 29.6515 112.709L29.9656 113.253C30.1391 113.554 30.5233 113.657 30.8237 113.483L105.9 70.138L104.957 68.5059L29.8814 111.851Z" fill="#326238"/>
<path d="M135.068 124.342C135.43 143.921 126.742 156.821 122.284 160.938C116.692 158.593 104.243 149.42 97.8876 130.898C91.4537 112.149 103.607 98.8376 110.549 94.4441C118.577 96.1979 134.701 104.523 135.068 124.342Z" fill="#326238"/>
<path d="M122.94 159.875C122.993 160.176 122.792 160.463 122.491 160.516L121.946 160.612C121.645 160.665 121.358 160.464 121.305 160.163L108.043 84.9536L109.678 84.6653L122.94 159.875Z" fill="#326238"/>
<path d="M72.6716 35.013C61.4488 25.2364 49.693 23.9925 45.1178 24.5765C43.7509 28.9785 43.0101 40.7083 50.6894 53.4583C58.463 66.3648 72.1509 65.792 78.1008 63.8963C81.0019 58.3651 84.0322 44.9097 72.6716 35.013Z" fill="#326238"/>
<path d="M46.0572 24.7144C45.9079 24.5364 45.6425 24.5132 45.4646 24.6625L45.1424 24.9329C44.9644 25.0822 44.9412 25.3475 45.0905 25.5255L82.4024 69.9921L83.3691 69.181L46.0572 24.7144Z" fill="#326238"/>
<ellipse cx="8.81369" cy="9.85059" rx="8.81369" ry="9.85059" transform="matrix(-0.173648 -0.984808 -0.984808 0.173648 143.807 62.3254)" fill="url(#paint0_linear_2_231)"/>
<ellipse cx="8.81369" cy="9.85059" rx="8.81369" ry="9.85059" transform="matrix(-0.173648 -0.984808 -0.984808 0.173648 81.3242 64.288)" fill="url(#paint1_linear_2_231)"/>
<defs>
<linearGradient id="paint0_linear_2_231" x1="8.81369" y1="0" x2="8.81369" y2="6.73988" gradientUnits="userSpaceOnUse">
<stop stop-color="#A83143"/>
<stop offset="1" stop-color="#D33F56"/>
</linearGradient>
<linearGradient id="paint1_linear_2_231" x1="8.81369" y1="0" x2="8.81369" y2="6.73988" gradientUnits="userSpaceOnUse">
<stop stop-color="#A83143"/>
<stop offset="1" stop-color="#D33F56"/>
</linearGradient>
</defs>
</svg>